<!-- Generated by IcoMoon.io -->
<svg version="1.1" xmlns="http://www.w3.org/2000/svg" width="42" height="32" viewBox="0 0 42 32">
<title>group4</title>
<path fill="#afb1b8" d="M5.189 22.954c0.145 0.164 0.221 0.369 0.217 0.579 0.001 0.013 0.001 0.028 0.001 0.044 0 0.129-0.029 0.252-0.081 0.362l0.002-0.005c-0.062 0.132-0.15 0.242-0.258 0.329l-0.002 0.001c-0.245 0.169-0.549 0.27-0.876 0.27-0.036 0-0.072-0.001-0.107-0.004l0.005 0h-1.721v-3.668h1.685c0.030-0.002 0.065-0.003 0.1-0.003 0.31 0 0.599 0.092 0.84 0.25l-0.006-0.004c0.109 0.084 0.196 0.19 0.252 0.308 0.057 0.12 0.082 0.249 0.075 0.379 0.009 0.201-0.059 0.401-0.196 0.561-0.131 0.146-0.312 0.247-0.513 0.287 0.228 0.038 0.434 0.149 0.581 0.314zM3.171 22.401h0.721c0.164 0.011 0.326-0.033 0.458-0.122 0.052-0.043 0.094-0.098 0.122-0.16l0.001-0.003c0.021-0.047 0.034-0.103 0.034-0.161 0-0.012-0.001-0.024-0.002-0.036l0 0.002c0.001-0.009 0.001-0.020 0.001-0.031 0-0.059-0.012-0.116-0.035-0.167l0.001 0.003c-0.028-0.065-0.069-0.119-0.12-0.163l-0.001-0c-0.116-0.079-0.26-0.126-0.414-0.126-0.020 0-0.040 0.001-0.060 0.002l0.003-0h-0.709v0.963zM4.42 23.807c0.056-0.045 0.101-0.101 0.132-0.166l0.001-0.003c0.024-0.052 0.038-0.112 0.038-0.175 0-0.010-0-0.020-0.001-0.030l0 0.001c0.001-0.008 0.001-0.017 0.001-0.027 0-0.066-0.015-0.128-0.041-0.183l0.001 0.003c-0.032-0.068-0.078-0.124-0.134-0.168l-0.001-0.001c-0.124-0.084-0.277-0.134-0.441-0.134-0.017 0-0.034 0.001-0.050 0.002l0.002-0h-0.756v1.009h0.766c0.172 0.009 0.343-0.036 0.484-0.127zM8.634 24.532l-0.937-1.434h-0.353v1.434h-0.807v-3.669h1.527c0.033-0.002 0.071-0.004 0.109-0.004 0.359 0 0.691 0.118 0.958 0.318l-0.004-0.003c0.213 0.199 0.343 0.462 0.363 0.74 0.002 0.023 0.003 0.050 0.003 0.077 0 0.267-0.095 0.513-0.254 0.703l0.001-0.002c-0.189 0.195-0.44 0.329-0.721 0.372l-0.007 0.001 0.999 1.466h-0.877zM7.345 22.597h0.66c0.458 0 0.687-0.185 0.687-0.555 0.001-0.009 0.001-0.019 0.001-0.030 0-0.070-0.014-0.136-0.039-0.196l0.001 0.003c-0.031-0.075-0.075-0.138-0.131-0.19l-0-0c-0.125-0.095-0.284-0.151-0.455-0.151-0.023 0-0.045 0.001-0.067 0.003l0.003-0h-0.667l0.008 1.116zM13.043 23.793h-1.607l-0.284 0.739h-0.846l1.476-3.628h0.914l1.47 3.628h-0.845l-0.278-0.738zM12.828 23.237l-0.587-1.548-0.587 1.548h1.175zM18.561 24.532h-0.8l-1.796-2.495v2.495h-0.799v-3.669h0.799l1.796 2.51v-2.51h0.8v3.669zM23.131 23.653c-0.166 0.277-0.418 0.503-0.725 0.647-0.311 0.146-0.676 0.232-1.061 0.232-0.023 0-0.046-0-0.069-0.001l0.003 0h-1.425v-3.669h1.425c0.020-0.001 0.043-0.001 0.067-0.001 0.384 0 0.748 0.083 1.075 0.233l-0.016-0.007c0.306 0.142 0.559 0.365 0.724 0.64 0.165 0.299 0.251 0.628 0.251 0.963s-0.086 0.664-0.251 0.962zM22.215 23.566c0.217-0.227 0.352-0.536 0.354-0.875v-0c0-0.321-0.126-0.632-0.354-0.875-0.248-0.196-0.566-0.315-0.911-0.315-0.032 0-0.064 0.001-0.096 0.003l0.004-0h-0.556v2.375h0.556c0.027 0.002 0.060 0.003 0.092 0.003 0.345 0 0.663-0.118 0.914-0.317l-0.003 0.002zM13.544 0.455s10.334 3.572 10.115 8.741v8.743s-10.327-3.573-10.111-8.743l-0.004-8.741zM32.865 15.892c1.952-1.23 4.209-1.991 6.566-2.215v-2.738c-2.715 0.959-5.019 2.696-6.566 4.953z"></path>
<path fill="#afb1b8" d="M31.693 16.717c1.597-2.945 4.366-5.218 7.738-6.351v-7.886s-14.717 5.089-14.406 12.45v12.448s0.656-0.228 1.688-0.654c0-0.398 0-0.799 0.047-1.203 0.304-3.417 2.078-6.584 4.933-8.804z"></path>
<path fill="#afb1b8" d="M30.293 21.341c0.077-0.863 0.249-1.717 0.515-2.549-1.778 1.917-2.854 4.296-3.077 6.802-0.022 0.236-0.034 0.473-0.039 0.717 1.228-0.537 2.157-0.994 3.067-1.482l-0.237 0.116c-0.261-1.186-0.338-2.399-0.229-3.605zM30.879 21.386c-0.029 0.303-0.045 0.655-0.045 1.010 0 0.798 0.083 1.576 0.24 2.327l-0.013-0.073c4.021-2.203 8.539-5.607 8.364-9.72v-0.359c-2.873 0.295-5.56 1.444-7.65 3.273-0.461 1.036-0.779 2.237-0.893 3.498l-0.003 0.044z"></path>
</svg>
